<svg width="28" height="28" viewBox="0 0 28 28" fill="none" xmlns="http://www.w3.org/2000/svg">
<path d="M7.29943 17.0427C7.29943 16.5818 6.9258 16.2082 6.46491 16.2082C6.00402 16.2082 5.63039 16.5818 5.63039 17.0427H7.29943ZM6.46491 18.1554H5.63039H6.46491ZM22.8771 17.0427C22.8771 16.5818 22.5035 16.2082 22.0426 16.2082C21.5817 16.2082 21.2081 16.5818 21.2081 17.0427H22.8771ZM14.9053 6.43709C15.1932 6.0772 15.1349 5.55204 14.775 5.26412C14.4151 4.97621 13.8899 5.03456 13.602 5.39445L14.9053 6.43709ZM9.15123 10.9579C8.86331 11.3178 8.92166 11.843 9.28156 12.1309C9.64145 12.4188 10.1666 12.3604 10.4545 12.0005L9.15123 10.9579ZM14.9055 5.39445C14.6176 5.03456 14.0924 4.97621 13.7325 5.26412C13.3726 5.55204 13.3143 6.0772 13.6022 6.43709L14.9055 5.39445ZM18.0529 12.0005C18.3409 12.3604 18.866 12.4188 19.2259 12.1309C19.5858 11.843 19.6442 11.3178 19.3562 10.9579L18.0529 12.0005ZM15.0882 5.91577C15.0882 5.45488 14.7146 5.08125 14.2537 5.08125C13.7928 5.08125 13.4192 5.45488 13.4192 5.91577H15.0882ZM13.4192 18.1554C13.4192 18.6163 13.7928 18.9899 14.2537 18.9899C14.7146 18.9899 15.0882 18.6163 15.0882 18.1554H13.4192ZM5.63039 17.0427V18.1554H7.29943V17.0427H5.63039ZM5.63039 18.1554C5.63039 20.4598 7.49852 22.328 9.80298 22.328V20.6589C8.42031 20.6589 7.29943 19.538 7.29943 18.1554H5.63039ZM9.80298 22.328H18.7045V20.6589H9.80298V22.328ZM18.7045 22.328C21.009 22.328 22.8771 20.4598 22.8771 18.1554H21.2081C21.2081 19.538 20.0872 20.6589 18.7045 20.6589V22.328ZM22.8771 18.1554V17.0427H21.2081V18.1554H22.8771ZM13.602 5.39445L9.15123 10.9579L10.4545 12.0005L14.9053 6.43709L13.602 5.39445ZM13.6022 6.43709L18.0529 12.0005L19.3562 10.9579L14.9055 5.39445L13.6022 6.43709ZM13.4192 5.91577V18.1554H15.0882V5.91577H13.4192Z" fill="white"/>
</svg>
